<svg xmlns="http://www.w3.org/2000/svg" version="1.1" width="2000" height="2000" viewBox="0 0 2000 2000">
  <g>
    <circle r="1000" cx="1000" cy="1000" fill="#ffc604" data-fill-palette-color="accent"></circle>
    <svg xmlns="http://www.w3.org/2000/svg" version="1.1" x="0" y="0" viewBox="30 0 40 100" enable-background="new 0 0 100 100" xml:space="preserve" height="2000" width="2000" class="icon-jxe-0" data-fill-palette-color="quaternary" id="jxe-0">
      <path d="M56.901 6.693C56.901 14.771 56.409 27.721 55.802 27.721 55.197 27.721 54.704 14.774 54.704 6.693H53.701C53.701 14.771 53.212 27.721 52.602 27.721S51.5 14.774 51.5 6.693H50.497C50.497 14.771 50.002 27.721 49.399 27.721 48.786 27.721 48.3 14.774 48.3 6.693H47.294C47.294 14.771 46.805 27.721 46.196 27.721 45.59 27.721 45.097 14.774 45.097 6.693H44.589C42.944 11.802 42.367 24.616 42.367 27.907 42.367 33.245 46.37 36.865 46.37 36.865 47.913 37.769 49.091 39.969 48.992 41.758 48.992 41.758 46.475 86.529 46.475 89.077 46.475 92.521 48.5 95.306 50.998 95.306S55.521 92.522 55.521 89.077C55.521 86.534 53.007 41.758 53.007 41.758 52.905 39.969 54.083 37.769 55.626 36.862 55.626 36.862 59.629 33.241 59.629 27.907 59.629 24.616 59.051 11.803 57.406 6.693z" fill="#FD4D79" data-fill-palette-color="quaternary"></path>
    </svg>
  </g>
</svg>